<svg id="Layer_1" data-name="Layer 1" xmlns="http://www.w3.org/2000/svg" viewBox="0 0 750 750"><defs><style>.cls-1{fill:none;}.cls-2,.cls-5{fill:#ebebeb;}.cls-3{fill:#e0e0e0;}.cls-4{fill:#f5f5f5;}.cls-4,.cls-5{fill-rule:evenodd;}.cls-6{fill:#0090d0;}.cls-7{opacity:0.5;isolation:isolate;}.cls-8{fill:#263238;}.cls-9{fill:#ffbe9d;}.cls-10{fill:#eb996e;}.cls-11{fill:#455a64;}.cls-12{opacity:0.3;}.cls-13{opacity:0.4;}.cls-14{opacity:0.2;}</style></defs><rect class="cls-1" width="750" height="750"/><g id="freepik--background-complete--inject-9"><path class="cls-2" d="M562.19,173.25s-8,3.77,2.18,20.22,17,24.46,17,24.46,1.89,3.89-1.42,4.78-10.76.19-12,4.58,2.24,8.16,8.81,11.16,20.76,10.13,22,10.76,2.65,2.4.45,3.37-18.69,4.1-16.74,11.84,21.64,13.08,23.78,13.71,2.71,1.46,2.63,2.62-5.7,1.68-10.36,2.76-9.88,3.2-8.37,7.52,13.6,12.76,41.32,13.16l12.9-.6,6.1-11.34c11.5-25.21,9.05-39.75,5.75-43s-7.41.6-10.38,4.34S640,262.23,639,261.8s-1.55-1.24-1.2-3.5,3.94-22.29-2.22-27.37-16,8.49-17.85,10-2.81-.43-2.85-1.86-.42-17.27-.31-24.5-2-12-6.31-12.73-7,6.24-9.26,8.85-4.9-.75-4.9-.75-4.34-9.61-14.84-25.84S562,173.36,562,173.36" transform="translate(0 109.36)"/><path class="cls-3" d="M646.57,305.86c-7.6-12-21.4-33.14-33.13-51.41s-22.29-34.83-29.83-46.9c-3.78-6.06-6.82-11-8.89-14.35l-2.39-3.91c-.25-.43-.45-.77-.61-1l-.19-.36a3.77,3.77,0,0,1,.23.33l.64,1,2.4,3.87,9,14.24c7.57,12,18.16,28.57,29.89,46.83s25.49,39.46,33,51.52" transform="translate(0 109.36)"/><path class="cls-3" d="M604.8,212.78l-.36,2.5c-.29,2.21-.67,5-1.12,8.27s-.84,6.16-1.19,8.27c-.18,1.06-.34,1.91-.46,2.49a3.18,3.18,0,0,1-.25.9,5.63,5.63,0,0,1,.1-.92c.08-.68.2-1.52.33-2.51.28-2.2.66-5,1.06-8.28s.82-6.16,1.19-8.26c.19-1.05.35-1.9.48-2.49a4.19,4.19,0,0,1,.23-.91A4.22,4.22,0,0,1,604.8,212.78Z" transform="translate(0 109.36)"/><path class="cls-3" d="M586.8,233.34c-7.38-1.32-13.37-2.5-13.36-2.6s6,.87,13.43,2.21,13.37,2.5,13.37,2.6S594.18,234.67,586.8,233.34Z" transform="translate(0 109.36)"/><path class="cls-3" d="M618.58,262.83c-.6.12-1.47.25-2.55.4-2.16.3-5.15.61-8.48.85s-6.35.24-8.54.24h-2.58a6,6,0,0,1-.95-.08,3.36,3.36,0,0,1,.95-.07H599c2.17-.05,5.18-.15,8.5-.36s6.31-.52,8.49-.74l2.56-.28a5,5,0,0,1,1,0A5.79,5.79,0,0,1,618.58,262.83Z" transform="translate(0 109.36)"/><path class="cls-3" d="M628.07,243.09c-.23.6-.55,1.34-.9,2.2-.77,1.82-1.9,4.35-3.16,7.17s-2.42,5.36-3.26,7.18l-1,2.15a4.26,4.26,0,0,1-.43.78,3.32,3.32,0,0,1,.28-.84l.91-2.2c.77-1.81,1.9-4.35,3.16-7.18s2.41-5.35,3.26-7.17l1-2.15a5.86,5.86,0,0,1,.42-.78A3.22,3.22,0,0,1,628.07,243.09Z" transform="translate(0 109.36)"/><path class="cls-3" d="M648,265.2l-1.2,2.79c-1,2.37-2.49,5.62-4.14,9.21s-3.16,6.77-4.26,9.16l-1.34,2.75a5.91,5.91,0,0,1-.54,1,5.86,5.86,0,0,1,.41-1.05c.3-.74.7-1.69,1.19-2.81,1.06-2.37,2.5-5.62,4.15-9.21s3.16-6.81,4.26-9.14l1.34-2.77a6.24,6.24,0,0,1,.54-1A6.83,6.83,0,0,1,648,265.2Z" transform="translate(0 109.36)"/><path class="cls-3" d="M635.45,289.48l-3.25.36c-2.73.25-6.59.61-10.76.7s-8,.1-10.76.1c-1.39,0-2.51-.11-3.28-.11a7.86,7.86,0,0,1-1.19-.11,7.88,7.88,0,0,1,1.19,0h3.28c2.72,0,6.57-.06,10.76-.21s8-.4,10.76-.59l3.26-.22a6,6,0,0,1,1.2,0A8.11,8.11,0,0,1,635.45,289.48Z" transform="translate(0 109.36)"/><path class="cls-3" d="M667.42,219.35v1.13c.08,1,.15,2.46.42,4.36a43.45,43.45,0,0,0,5.48,15.7l.12.22h-.26l.13-.22c7.84,13.85,19.59,34.51,33.68,59.28h-.44l35.36-56.51c.54-.95,1.19-1.9,1.74-2.78l.24.43h-.49l.25-.43a42.92,42.92,0,0,0,5.26-14.72,41,41,0,0,0,.53-7.66c-.06-1.28,0-2.56-.21-3.81s-.37-2.52-.55-3.71a43,43,0,0,0-14.25-24.48,41.16,41.16,0,0,0-11.54-6.74l-1.52-.58-.75-.27-.78-.22-3.08-.81a42.78,42.78,0,0,0-6.17-.75,41.17,41.17,0,0,0-6,.08c-1,.08-1.94.29-2.89.42l-1.43.23c-.46.09-.92.23-1.37.35l-2.72.72-2.57,1c-.43.17-.86.3-1.26.49l-1.2.59-2.39,1.19A42.9,42.9,0,0,0,675,194.38a43.93,43.93,0,0,0-6,12.69,41.55,41.55,0,0,0-1.1,5,29.52,29.52,0,0,0-.45,3.75c-.06,1-.14,1.81-.14,2.32V219a1.92,1.92,0,0,1,0-.79,16.56,16.56,0,0,0,.09-2.33,26.64,26.64,0,0,1,.4-3.77,38.37,38.37,0,0,1,1.06-5.07,43.57,43.57,0,0,1,6-12.81,42.73,42.73,0,0,1,13.75-12.7l2.39-1.2,1.19-.61c.42-.18.85-.32,1.28-.49l2.6-1,2.73-.74c.47-.12.94-.26,1.4-.36l1.44-.24c1-.13,1.94-.35,2.93-.43a43.76,43.76,0,0,1,6.06-.11,45.05,45.05,0,0,1,6.24.76l3.12.81.79.22.77.28,1.54.58a42,42,0,0,1,11.63,6.82,43.6,43.6,0,0,1,14.46,24.72c.18,1.25.37,2.51.56,3.78l.22,3.83a40.31,40.31,0,0,1-.54,7.76,43.31,43.31,0,0,1-5.34,14.93l-.23-.43h.51l-.28.43-1.74,2.78L707,300.07l-.24.36-.21-.37-33.47-59.39-.12-.21h.25l-.12.21a42.5,42.5,0,0,1-5.37-15.82,35.16,35.16,0,0,1-.34-5.89A1,1,0,0,1,667.42,219.35Z" transform="translate(0 109.36)"/><path class="cls-3" d="M682.43,218.06v-1.25c0-.28,0-.57,0-.91s.14-.71.14-1.11a19.13,19.13,0,0,1,.49-2.72,25.31,25.31,0,0,1,2.84-7,26.28,26.28,0,0,1,31.57-11.45,25.57,25.57,0,0,1,3.47,1.43,28.84,28.84,0,0,1,3.25,2.07,31.84,31.84,0,0,1,3,2.53,32.84,32.84,0,0,1,2.6,3.06,25.53,25.53,0,0,1,3.81,7.27,26.44,26.44,0,0,1,0,16.74,25.58,25.58,0,0,1-3.77,7.3,30.94,30.94,0,0,1-2.51,3.08,29.29,29.29,0,0,1-3,2.56,24.22,24.22,0,0,1-6.68,3.59,26.31,26.31,0,0,1-31.64-11.3,24.85,24.85,0,0,1-2.87-7,21.16,21.16,0,0,1-.51-2.73,9.46,9.46,0,0,1-.14-1.1V219a1.55,1.55,0,0,1,0-.43,3.08,3.08,0,0,1,0,.43c0,.26.09.68.09,1.19v.92a7.08,7.08,0,0,1,.18,1.09,18.89,18.89,0,0,0,.56,2.69,24.8,24.8,0,0,0,2.93,6.91,26,26,0,0,0,31.18,11,25.55,25.55,0,0,0,3.16-1.41,26.51,26.51,0,0,0,3.18-2,29.17,29.17,0,0,0,2.93-2.51,27.89,27.89,0,0,0,2.52-3,24.64,24.64,0,0,0,3.69-7.17,25.84,25.84,0,0,0,0-16.35,25.49,25.49,0,0,0-3.72-7.17,28,28,0,0,0-2.55-3,29.18,29.18,0,0,0-2.94-2.5,27.17,27.17,0,0,0-3.18-2,26.15,26.15,0,0,0-34.47,9.66,24.88,24.88,0,0,0-2.89,6.92,18.87,18.87,0,0,0-.55,2.69,8.23,8.23,0,0,0-.17,1.1v.91a5.51,5.51,0,0,0-.1,1.19,2.94,2.94,0,0,1,0,.42A2.35,2.35,0,0,1,682.43,218.06Z" transform="translate(0 109.36)"/><polygon class="cls-3" points="692.1 318.46 697.18 314.45 710.38 331.23 720.58 324.11 724.29 329.42 709.07 340.03 692.1 318.46"/><path class="cls-4" d="M283.39,34.14l4.34-11.62,20.32,2.76,1.09,12.36a50.09,50.09,0,0,1,11.56,6.74L332,39.23l12.43,16.34-7.94,9.55a50.57,50.57,0,0,1,3.42,12.94l11.61,4.35-2.77,20.33-12.35,1.09a50.3,50.3,0,0,1-6.74,11.56l5.15,11.29-16.33,12.43-9.56-8a50.31,50.31,0,0,1-13,3.49l-4.34,11.62-20.32-2.76-1.09-12.35a50.09,50.09,0,0,1-11.56-6.74l-11.29,5.15-12.43-16.35,8-9.56a50.24,50.24,0,0,1-3.42-13l-11.62-4.34L230.61,66,243,64.87a50.91,50.91,0,0,1,6.75-11.56L244.56,42,260.9,29.59l9.5,8a50.93,50.93,0,0,1,13-3.41ZM267.31,79a21.67,21.67,0,0,0-.61,4.46,22.05,22.05,0,1,0,.61-4.46Z" transform="translate(0 109.36)"/><path class="cls-5" d="M468.6,99.22l2.82-7.53,13.21,1.74.71,8a32.84,32.84,0,0,1,7.49,4.37l7.33-3.33,8.07,10.6L503,119.3a32.75,32.75,0,0,1,2.22,8.37l7.54,2.81L511,143.69l-8,.71a32.25,32.25,0,0,1-4.37,7.51l3.35,7.33-10.61,8.07-6.17-5.18a32.33,32.33,0,0,1-8.37,2.21l-2.82,7.55-13.15-1.8-.71-8a32.25,32.25,0,0,1-7.51-4.37L445.23,161l-8-10.69,5.17-6.17a33.17,33.17,0,0,1-2.22-8.37L432.61,133l1.78-13.15,8-.71a32.86,32.86,0,0,1,4.38-7.51l-3.34-7.33,10.61-8.07,6.17,5.18a32.35,32.35,0,0,1,8.37-2.22Zm4,18.17a14.35,14.35,0,1,0,13.93,14.75,14.33,14.33,0,0,0-13.93-14.75Z" transform="translate(0 109.36)"/><path class="cls-2" d="M353.37,199.3a23.07,23.07,0,0,0-6.85,13.31,22.6,22.6,0,0,0,7.53,20.22A22.74,22.74,0,0,0,366,238.2a22.48,22.48,0,0,0,25.11-25.65,22.76,22.76,0,0,0-4.79-10.86,22.47,22.47,0,0,0-8.17-6.35,23,23,0,0,0-15-1.42c-3.53.89-5.28,2-5.36,1.83a17.46,17.46,0,0,1,5.23-2.39,23,23,0,0,1,15.46,1.08,23.26,23.26,0,0,1,8.7,6.5,23.75,23.75,0,0,1,5.14,11.37,22.35,22.35,0,0,1,.09,6.83,22.09,22.09,0,0,1-2,6.83,23.54,23.54,0,0,1-24.62,13.49,22.29,22.29,0,0,1-6.82-2,22.06,22.06,0,0,1-5.71-3.73,23.67,23.67,0,0,1-6.82-10.45,23.42,23.42,0,0,1-.82-10.84A23.09,23.09,0,0,1,353,198.87a17.47,17.47,0,0,1,4.78-3.15A50.58,50.58,0,0,0,353.37,199.3Z" transform="translate(0 109.36)"/><path class="cls-2" d="M332.8,176.26l-.72-2.39c-.65-2.14-1.58-5.24-2.78-9.24v-.17l.16-.08,18.82-10.47.24-.13.18.21,8.65,9.71-.38-.12A52.42,52.42,0,0,1,371,162l-.39.21c2-3.55,4.07-7.4,6.28-11.39l.18-.34.36.11,20.69,6,.4.12v.42c-.23,4-.5,8.45-.76,13l-.26-.5a54.07,54.07,0,0,1,11.08,8.86l-.57-.16,12.49-3.58.46-.13.22.41,10.39,18.87.23.43-.36.34c-3,2.65-6.36,5.63-9.74,8.63l.2-.62a53.28,53.28,0,0,1,1.54,14.12l-.32-.57,11.38,6.3.46.25-.15.5-6,20.67-.14.5h-.52l-13-.78.61-.33a53.4,53.4,0,0,1-8.89,11.09h0c.09-.29-.18.67.18-.66h0v.18l.06.19.11.39.23.79.45,1.57.9,3.14,1.78,6.23.16.52-.47.25-18.89,10.35-.46.25-.34-.39L382,267.46l.64.2a53.77,53.77,0,0,1-14.13,1.53l.57-.34-6.32,11.39-.24.44-.49-.14-20.66-6.05-.47-.14v-.49q.42-6.6.81-13l.29.54a53,53,0,0,1-11.06-8.9l.58.16L319,256.26l-.42.12-.22-.38-10.32-18.9-.2-.36.31-.26,9.77-8.61-.15.48a53.07,53.07,0,0,1-1.5-14.09l.23.39-11.36-6.36-.28-.14.09-.3c2.36-8,4.39-14.81,6.12-20.65l.07-.24h.23l13,.88-.19.1a50.83,50.83,0,0,1,6.45-8.44c.8-.85,1.43-1.44,1.86-1.84a7,7,0,0,1,.66-.56,6,6,0,0,1-.59.64l-1.77,1.92a54.16,54.16,0,0,0-6.24,8.5l-.07.11h-.13l-13-.72.31-.2c-1.72,5.84-3.68,12.67-6,20.69l-.17-.45,11.39,6.28.23.13v.26a52,52,0,0,0,1.55,13.83l.06.28-.21.19-9.72,8.64.1-.62,10.41,18.86-.64-.26,12.5-3.59.33-.1.24.25a51.89,51.89,0,0,0,10.85,8.67l.31.18V261c-.26,4.25-.52,8.59-.78,13l-.43-.62,20.67,6-.73.3q3.11-5.61,6.32-11.39l.17-.34h.4a52.51,52.51,0,0,0,13.79-1.51l.38-.1.17.29,8.62,9.73-.81-.13,18.88-10.37-.32.77c-.58-2.07-1.18-4.15-1.78-6.24l-.91-3.14-.44-1.58-.23-.77-.12-.4v-.37h0c.36-1.33.11-.37.19-.67h0a51.69,51.69,0,0,0,8.67-10.76l.21-.35h.4l13,.81-.67.46,6-20.67.31.75-11.38-6.32-.35-.19v-.39A51.52,51.52,0,0,0,420.7,203l-.09-.37.29-.25,9.75-8.63-.14.77-10.39-19,.69.28-12.52,3.58-.34.1-.24-.25A51.88,51.88,0,0,0,397,170.53l-.28-.16V170c.28-4.54.56-9,.82-13l.37.53L377.2,151.5l.55-.23c-2.24,4-4.38,7.79-6.35,11.37l-.13.23H371a53,53,0,0,0-13.86,1.47l-.23.06-.15-.18-8.58-9.78.41.07-18.94,10.25.1-.24,2.58,9.39c.26,1,.46,1.8.62,2.39a7,7,0,0,1,.18.79A5,5,0,0,1,332.8,176.26Z" transform="translate(0 109.36)"/><polygon class="cls-2" points="224.93 232.19 301.27 233.46 282.51 308.07 224.93 232.19"/><rect class="cls-2" x="103.5" y="185.91" width="175.43" height="43.38" transform="translate(-86.6 267.16) rotate(-37.19)"/></g><g id="freepik--Character--inject-9"><path class="cls-6" d="M124.34,380.77l-13.7,34.88,43.3,17.27c1.44-4.28-17.69-21.52-17.69-21.52l9.7-22Z" transform="translate(0 109.36)"/><path class="cls-7" d="M124.34,380.77l-13.7,34.88,43.3,17.27c1.44-4.28-17.69-21.52-17.69-21.52l9.7-22Z" transform="translate(0 109.36)"/><path class="cls-8" d="M154,433c.75-1.28-.84-2.88-.84-2.88l-41-17.94-1.52,3.5Z" transform="translate(0 109.36)"/><path class="cls-6" d="M49.2,409.5,31.62,442.64l41.06,22.1c1.86-4.11-15.14-23.41-15.14-23.41l12.15-20.75Z" transform="translate(0 109.36)"/><path class="cls-7" d="M49.2,409.5,31.62,442.64l41.06,22.1c1.86-4.11-15.14-23.41-15.14-23.41l12.15-20.75Z" transform="translate(0 109.36)"/><path class="cls-8" d="M72.68,464.68c.89-1.17-.51-2.95-.51-2.95L33.55,439.32l-1.93,3.26Z" transform="translate(0 109.36)"/><path class="cls-9" d="M126.62,71.81l1.73-1a36.83,36.83,0,0,1,37.32.54h0s-1.6,24.36-3.18,34.85-12.34,10.64-12.34,10.64l-.88,14.9-26.62-2.08Z" transform="translate(0 109.36)"/><path class="cls-10" d="M150,119.67c-10.62-.53-12.94-8.78-12.94-8.78a24.7,24.7,0,0,0,13.15,5.82Z" transform="translate(0 109.36)"/><path class="cls-9" d="M125.34,93.22c0,.21-7.43.92-6.66-6.3s7.54-4.17,7.7-4.06C126.38,82.86,125.38,93,125.34,93.22Z" transform="translate(0 109.36)"/><path class="cls-10" d="M123.08,90.58a1.31,1.31,0,0,1-1.19.06,3.3,3.3,0,0,1-1.51-3.31,4.28,4.28,0,0,1,.66-2,1.76,1.76,0,0,1,1.43-1,.87.87,0,0,1,.67.26.76.76,0,0,1,.24.48c0,.31-.14.42-.14.4a.5.5,0,0,0,0-.35.64.64,0,0,0-.71-.43,1.43,1.43,0,0,0-1,.86,4.12,4.12,0,0,0-.54,1.75,3.17,3.17,0,0,0,1.2,3,1.3,1.3,0,0,0,.93.08,2.72,2.72,0,0,0,.36-.15S123.41,90.42,123.08,90.58Z" transform="translate(0 109.36)"/><path class="cls-8" d="M161.14,87.83a1.45,1.45,0,0,0-1.36-1.54,1.5,1.5,0,0,0-1.65,1.31v.06a1.43,1.43,0,0,0,1.35,1.51,1.52,1.52,0,0,0,1.66-1.3Z" transform="translate(0 109.36)"/><path class="cls-8" d="M161.15,85a4,4,0,0,0-2.23-1.08,4.28,4.28,0,0,0-2.49.4c-.56.3-.87.5-.73.73s1.41-.41,3.06-.19,2.63,1.21,2.85,1S161.6,85.4,161.15,85Z" transform="translate(0 109.36)"/><path class="cls-8" d="M145.45,86a1.46,1.46,0,0,0-1.37-1.55,1.52,1.52,0,0,0-1.65,1.32v0a1.44,1.44,0,0,0,1.35,1.53,1.51,1.51,0,0,0,1.66-1.3Z" transform="translate(0 109.36)"/><path class="cls-8" d="M145.24,83A3.94,3.94,0,0,0,143,81.94a4.07,4.07,0,0,0-2.47.4c-.57.3-.9.52-.74.73s1.41-.43,3.06-.2,2.63,1.23,2.84,1S145.68,83.48,145.24,83Z" transform="translate(0 109.36)"/><path class="cls-8" d="M152.55,97.14a2.06,2.06,0,0,0,.7,0,1,1,0,0,0,.77-.5A2.46,2.46,0,0,0,154,95l-.72-3.32A54.76,54.76,0,0,0,151,83.23a53.23,53.23,0,0,0,1.58,8.59c.27,1.15.53,2.26.77,3.32a2,2,0,0,1,.11,1.19c-.11.29-.51.29-.93.29a12.1,12.1,0,0,0-2.69.09A10.14,10.14,0,0,0,152.55,97.14Z" transform="translate(0 109.36)"/><path class="cls-8" d="M144.56,98.29a3.77,3.77,0,0,0,1,2.69,4.39,4.39,0,0,0,2.67,1.38c.79.09,1.23.06,1.26-.19s-1.84-.31-3.19-1.77-1.09-3.23-1.35-3.23S144.59,97.55,144.56,98.29Z" transform="translate(0 109.36)"/><path class="cls-8" d="M146.15,76.73a6.47,6.47,0,0,0-2.82-.74,6.12,6.12,0,0,0-2.86.58c-.68.33-1,.71-.92.92.14.43,1.8.17,3.73.17s3.5.41,3.73,0C147.14,77.46,146.79,77.07,146.15,76.73Z" transform="translate(0 109.36)"/><path class="cls-8" d="M161.3,80.09a3.86,3.86,0,0,0-2.08-1,3.9,3.9,0,0,0-2.31.29c-.54.28-.77.62-.68.83.2.41,1.39.29,2.71.51s2.39.74,2.73.42C161.82,80.93,161.72,80.54,161.3,80.09Z" transform="translate(0 109.36)"/><path class="cls-8" d="M169.7,68.81a3.1,3.1,0,0,1,.15,3.37,5.75,5.75,0,0,1-2.7,2.27,10,10,0,0,1-3,.8h-.46A21.61,21.61,0,0,1,150.81,72c-10.23-7.19-13.39-4.79-14.87-3.78s-.64,9.18-6.2,10.47c0,0-.1,8.24-4.4,7.57-2.45-.38-2.15-7.26-1.44-13a1,1,0,0,0,.06-.41,22.25,22.25,0,0,1-.54-4.88,9.87,9.87,0,0,1,2.47-6.68,6,6,0,0,1,6.66-1.51,13.57,13.57,0,0,1,18.29-5.46c1.49.79,2.82,1.86,4.29,2.7a7.92,7.92,0,0,0,4.78,1.26c1.72-.22,3.37-1.31,5.07-1l.3.1a3.24,3.24,0,0,1,1.91,4.18,2.79,2.79,0,0,1,3.59.23,3.94,3.94,0,0,1,.94,3.67A6.83,6.83,0,0,1,169.7,68.81Z" transform="translate(0 109.36)"/><polygon class="cls-2" points="123.71 216.02 123.06 221.2 149.01 277.05 150.19 235.35 123.71 216.02"/><path class="cls-8" d="M115.26,249.52l-1.68,41.42L145,316.7l.33,4-25.74,63.71,27.5,13.52s38.46-72.68,39.66-82.5S133.93,250.94,133,250.63Z" transform="translate(0 109.36)"/><path class="cls-8" d="M115.26,249.52l-42.12-8.69-2.09,21.52,3.87,76.21L40.87,419.09l27.9,11.24s37.56-73.28,40.07-77.72,11.87-90.26,12.5-91.2Z" transform="translate(0 109.36)"/><path class="cls-11" d="M109.33,350.28c.08-.62.18-1.46.3-2.5l1.2-9.15c1.06-7.78,2.47-18.42,4.16-30.18s3.22-22.38,4.34-30.15l1.38-9.13c.16-1,.29-1.92.4-2.48s.18-.86.18-.86a4.22,4.22,0,0,1,0,.87l-.29,2.5c-.29,2.22-.7,5.33-1.19,9.16-1.08,7.77-2.46,18.44-4.16,30.18s-3.23,22.37-4.34,30.15l-1.39,9.13c-.17,1-.3,1.85-.41,2.47a4.25,4.25,0,0,1-.18.86A6.32,6.32,0,0,1,109.33,350.28Z" transform="translate(0 109.36)"/><path class="cls-11" d="M77.79,342.78a41.18,41.18,0,0,1,1.66,6.76,42,42,0,0,1-2.2-6.64,42.85,42.85,0,0,1-1.62-6.8A39.14,39.14,0,0,1,77.79,342.78Z" transform="translate(0 109.36)"/><path class="cls-11" d="M71.42,355.54A27.24,27.24,0,0,0,75,338.68a7.68,7.68,0,0,1,.52,2.55,20.89,20.89,0,0,1-2.59,12.19,7.86,7.86,0,0,1-1.53,2.12Z" transform="translate(0 109.36)"/><path class="cls-11" d="M150.19,314.65c-2.1,1.92-3.44,3.87-3.59,3.78a14.62,14.62,0,0,1,7.72-7C154.45,311.55,152.29,312.72,150.19,314.65Z" transform="translate(0 109.36)"/><path class="cls-11" d="M148,312.19a37.72,37.72,0,0,1-2,3.41,12.06,12.06,0,0,1,4.17-6.74A36.34,36.34,0,0,1,148,312.19Z" transform="translate(0 109.36)"/><path class="cls-6" d="M148.93,161.34a148.63,148.63,0,0,0-.83-21.82,20.73,20.73,0,0,0-6.69-13L122.24,109l-1.83,1.1-.49,4.65-1.55.73c-2.46,1.48-20.19,13.21-21.27,16.86s-2.84,11.83-2.84,11.83l-11.68,58s-13.16,29.37-28.51,43.61c0,0,5.68,8.5,14.6,11l-4.21-4.17s24.92,3.14,36.37,6.72c9.88,3.13,33.05,6.37,33.05,6.37l5.62-47.83,6.9-34.27S148.71,168.21,148.93,161.34Z" transform="translate(0 109.36)"/><path class="cls-6" d="M110.22,141.19l1.31,28.46s3.54,39.54,6.58,43.77c2.26,3.14,60.12-1.44,60.12-1.44l-.14-21.71-36.44-.69s5.23-50.6,3.47-55.21-11.9-10.06-11.9-10.06C113.53,119.5,110.22,141.19,110.22,141.19Z" transform="translate(0 109.36)"/><g class="cls-12"><path d="M140.23,214.42s-11.21.81-15.87.32c-1.68-.12-3.48-.26-4.78-1.32a8,8,0,0,1-2.25-3.58c-3.68-9.87-5-33.35-5-33.35-1.2,3.29-2.92,9.47-2.39,12.85s1.36,6.73,1.56,10.17c.23,3.93-.39,8.05,1.09,11.7,1.94,4.78,7.16,7.59,12.29,8.06a35.13,35.13,0,0,0,14.59-1.35" transform="translate(0 109.36)"/></g><path class="cls-8" d="M110.28,144.9a13.52,13.52,0,0,1,.12,1.52c.09,1.35.24,3.26.39,5.8s.35,5.6.59,9.18.44,7.66.86,12.16.88,9.46,1.49,14.68S115,199.11,116,205a36.49,36.49,0,0,0,1,4.38,8.14,8.14,0,0,0,2.45,3.68,6,6,0,0,0,4.18,1.47c1.56.06,3.16,0,4.79,0,6.49-.17,13.21-.51,20.08-.88,10.33-.57,20.31-1.21,29.62-1.85l-.27.29c-.08-7.71-.08-15-.08-21.66l.26.25-35.16-1-9.84-.31-2.58-.11c-.59-.06-.88-.06-.88-.06H133l9.83.17,35.17.75h.25v.25c.05,6.71.13,14,.13,21.68v.26h-.26c-9.29.67-19.28,1.31-29.62,1.87-6.89.38-13.61.7-20.11.87h-4.78a6.68,6.68,0,0,1-4.54-1.61,8.84,8.84,0,0,1-2.63-3.95,35.51,35.51,0,0,1-1-4.46c-1-5.89-1.65-11.54-2.21-16.82s-1-10.21-1.42-14.71-.59-8.6-.78-12.17-.37-6.7-.49-9.19-.28-4.45-.28-5.82c-.06-.64-.06-1.14-.06-1.5a4.69,4.69,0,0,1,0-.53A2.43,2.43,0,0,1,110.28,144.9Z" transform="translate(0 109.36)"/><path class="cls-8" d="M170.7,201.13a90.08,90.08,0,0,1,.25-10.52,94.75,94.75,0,0,1,.36,10.52,92.33,92.33,0,0,1-.26,10.52A94.66,94.66,0,0,1,170.7,201.13Z" transform="translate(0 109.36)"/><path class="cls-8" d="M174.1,194.08a.72.72,0,0,0-.37.61.82.82,0,0,0,.45.71.8.8,0,0,0,.84-.13.85.85,0,0,0,.3-.68,2.09,2.09,0,0,0-.24-.81c0-.07.49.07.66.76a1.19,1.19,0,0,1-.36,1.14,1.27,1.27,0,0,1-1.08.39,1.28,1.28,0,0,1-1.12-1.42,1.13,1.13,0,0,1,.74-1c.7-.23,1.06.22,1,.22S174.52,193.83,174.1,194.08Z" transform="translate(0 109.36)"/><path class="cls-6" d="M83.11,204.55s-3.11,1.89-7-2.75-5.64-14.35-3.33-21.09,21.27-31.53,21.27-31.53Z" transform="translate(0 109.36)"/><path class="cls-8" d="M88.63,203.09a21.28,21.28,0,0,1,4.78,1.11,19.83,19.83,0,0,1-4.86-.52,21.28,21.28,0,0,1-4.78-1.11A19.89,19.89,0,0,1,88.63,203.09Z" transform="translate(0 109.36)"/><path class="cls-8" d="M79.9,222.24c-.22.87-.6,2.12-1.12,3.65a83.23,83.23,0,0,1-5,11.63,91.64,91.64,0,0,1-6.55,10.76c-.93,1.32-1.72,2.36-2.28,3.07a6.19,6.19,0,0,1-.93,1.05,6.07,6.07,0,0,1,.74-1.19c.51-.78,1.24-1.82,2.13-3.17A124.9,124.9,0,0,0,73.3,237.2a106.12,106.12,0,0,0,5.09-11.49c.56-1.5,1-2.72,1.28-3.58a7.73,7.73,0,0,1,.51-1.31A5.68,5.68,0,0,1,79.9,222.24Z" transform="translate(0 109.36)"/><g class="cls-12"><path d="M78.63,224.59A73.73,73.73,0,0,1,66,249.29a2.42,2.42,0,0,1-1.2,1,1.9,1.9,0,0,1-1.89-1c-1.17-1.83-.61-4.32.59-6.1a27.56,27.56,0,0,1,4.66-4.5c4.57-4.15,7.66-9.56,10.67-14.91" transform="translate(0 109.36)"/></g><g class="cls-12"><path d="M83.1,202l9.38-49-1.86,6.88a147.47,147.47,0,0,1-9.22,27c-1.3,2.9-2.76,5.82-3.14,9s.53,6.72,3.12,8.59Z" transform="translate(0 109.36)"/></g><path class="cls-8" d="M124.22,119a14.53,14.53,0,0,1-3.11-4,40.43,40.43,0,0,1,3.59,3.58,39.87,39.87,0,0,1,3.59,3.53A13.91,13.91,0,0,1,124.22,119Z" transform="translate(0 109.36)"/><path class="cls-8" d="M131,126.51a14.38,14.38,0,0,1,2.12.74,19.84,19.84,0,0,1,10.28,10.39,14.91,14.91,0,0,1,.71,2.14,2.36,2.36,0,0,1,.13.83s-.38-1.1-1.19-2.79A22,22,0,0,0,133,127.63c-1.67-.82-2.77-1.16-2.77-1.26A2.33,2.33,0,0,1,131,126.51Z" transform="translate(0 109.36)"/><path class="cls-8" d="M79.45,209l.67-1.48c.64-1.35,1.5-3.18,2.56-5.41h0c1.07-5.47,2.67-13.39,4.5-22.21,1.74-8.28,3.3-15.79,4.49-21.31.59-2.67,1.08-4.85,1.44-6.45.17-.7.31-1.29.42-1.76a3.09,3.09,0,0,1,.18-.59,2.21,2.21,0,0,1-.06.62c-.09.48-.19,1.06-.31,1.77l-1.2,6.49c-1.2,5.48-2.67,13-4.36,21.35-1.83,8.82-3.49,16.73-4.69,22.16h0c-1.14,2.2-2.06,4-2.74,5.33l-.75,1.43a2.09,2.09,0,0,1-.3.47A2.86,2.86,0,0,1,79.45,209Z" transform="translate(0 109.36)"/><path class="cls-8" d="M142.29,187.75c.09-1.28.2-2.94.34-4.94.33-4.16.8-9.91,1.37-16.26s1.11-12.09,1.53-16.23l.54-4.93a10.9,10.9,0,0,1,.27-1.79,9.12,9.12,0,0,1,0,1.81c-.1,1.27-.2,2.93-.35,4.93-.32,4.17-.8,9.94-1.36,16.27s-1.11,12.09-1.54,16.24c-.22,2-.4,3.66-.53,4.93a9.15,9.15,0,0,1-.29,1.79A13.82,13.82,0,0,1,142.29,187.75Z" transform="translate(0 109.36)"/><path class="cls-9" d="M177.76,210.76c.36.12,17-2.53,17-2.53s6.79-.59,6.79-3.58a2.69,2.69,0,0,0-1.66-2.26l1.19-.29a2.71,2.71,0,0,0,1.34-4.56l-.39-.35s2.71-.48,2.71-2.75a3.06,3.06,0,0,0-2.12-2.89,2.6,2.6,0,0,0,1.92-2,1.41,1.41,0,0,0,0-.29,2.88,2.88,0,0,0-2.9-2.8c-4-.11-12.79-.27-14.26,0-1.91.35-9.78,6.33-9.78,6.33S177.4,210.64,177.76,210.76Z" transform="translate(0 109.36)"/><path class="cls-9" d="M199.9,182.05a1.3,1.3,0,0,0-1.82-.36,7.12,7.12,0,0,0-1.33,1.3c-1,1.2-7.9,3.59-7.9,3.59l9.29.36c1.67-.95,1.91-3.05,2-4A1.29,1.29,0,0,0,199.9,182.05Z" transform="translate(0 109.36)"/><path class="cls-10" d="M197.44,186.19a14.09,14.09,0,0,1,4.25.29,15.83,15.83,0,0,1-4.23.3,13.15,13.15,0,0,1-4.24-.3A17.58,17.58,0,0,1,197.44,186.19Z" transform="translate(0 109.36)"/><path class="cls-10" d="M198.9,191.41a17.13,17.13,0,0,1,3.65,0,13.38,13.38,0,0,1-7.25.26A16.13,16.13,0,0,1,198.9,191.41Z" transform="translate(0 109.36)"/><path class="cls-10" d="M191.48,191.43c.4.27.75.47.74.64s-.52.2-1.08-.13-.7-.84-.56-.94S191.07,191.17,191.48,191.43Z" transform="translate(0 109.36)"/><path class="cls-10" d="M198.26,197.11a13.43,13.43,0,0,1,4,.18,26.64,26.64,0,0,1-8,.27A13.28,13.28,0,0,1,198.26,197.11Z" transform="translate(0 109.36)"/><path class="cls-10" d="M189.6,196.59c.53.68,1.33.81,1.33.94s-.22.13-.58.13a1.87,1.87,0,0,1-1.62-2.06c0-.36.19-.53.26-.53S189.07,195.91,189.6,196.59Z" transform="translate(0 109.36)"/><path class="cls-10" d="M196.46,202.57a11.09,11.09,0,0,1,3.59-.15,10.8,10.8,0,0,1-3.59.74,11,11,0,0,1-3.58.15A11.21,11.21,0,0,1,196.46,202.57Z" transform="translate(0 109.36)"/><path class="cls-10" d="M188.49,201.77c.56.69,1.13,1.25,1,1.37s-.85-.18-1.52-1a2.29,2.29,0,0,1-.5-1.2c0-.37.11-.56.18-.56A9.4,9.4,0,0,0,188.49,201.77Z" transform="translate(0 109.36)"/><path class="cls-6" d="M71.69,257.21c.34-1.27.66-2.52,1-3.78a.83.83,0,0,0-.69-1.14A21.74,21.74,0,0,0,64.37,251a1,1,0,0,0-.71.21c-.25.28-.08.72.11,1a10.57,10.57,0,0,0,8,5.07" transform="translate(0 109.36)"/><g class="cls-13"><path d="M71.69,257.21c.34-1.27.66-2.52,1-3.78a.83.83,0,0,0-.69-1.14A21.74,21.74,0,0,0,64.37,251a1,1,0,0,0-.71.21c-.25.28-.08.72.11,1a10.57,10.57,0,0,0,8,5.07" transform="translate(0 109.36)"/></g><path class="cls-2" d="M149.63,135.33s2.28,2,3.33,2.75-2.77-12.1-2.77-12.1Z" transform="translate(0 109.36)"/><path class="cls-8" d="M149.77,141.73a2.8,2.8,0,0,0,2.24.92c.82-.18.63-2.74.45-4.14a6.44,6.44,0,0,0-.4-1.61l-2.08-5Z" transform="translate(0 109.36)"/><path class="cls-8" d="M78.8,142.69l9,5.65a41.37,41.37,0,0,1,21.92-6.73c12.46,0,18.34,18.87,32.14,17.21s10.76-15.31,10.76-17.21l-2.8-.85s.43,9.28-12.72,9.28c-6.74,0-8.8-11.24-20.12-18.28s-31.76.93-31.76.93Z" transform="translate(0 109.36)"/><path class="cls-11" d="M131.27,155.76a62.3,62.3,0,0,1-8.65-7.66c-.26-.31-.59-.63-.92-.95-5.47-5.17-11.18-8.13-20.58-5.51A70.42,70.42,0,0,0,87.79,147l-7.56-4.91,5.82-7.87c9.1-6,22.27-4.5,28-2.39s12.51,10.46,15.69,17.79a19.18,19.18,0,0,0,7.88,9.05C136.38,158.65,134,157.59,131.27,155.76Z" transform="translate(0 109.36)"/></g><g id="freepik--Flag--inject-9"><path class="cls-6" d="M529.53,31.79s.94,17.29,12,31.53c17.37,22.42,43,15.46,43,15.46C602.85,74.2,601.82,43.2,620.69,44c11.31.41,34.83,25.51,34.83,25.51l3-66.95c-10.8-5.75-23.12-11.9-35.33-12.93S597.36-6.3,592.22,4.81c-3.67,8-4.92,16.74-7.54,25.11-2.83,9-11.71,19.25-23.84,17.38C538,43.77,529.53,31.79,529.53,31.79Z" transform="translate(0 109.36)"/><path class="cls-8" d="M652.26,150.33c-3.91,87.75-7.19,158.87-7.36,158.85s2.87-71.15,6.77-158.88S658.86-8.54,659-8.54,656.17,62.58,652.26,150.33Z" transform="translate(0 109.36)"/><g class="cls-14"><path d="M594.32,26.66c-.45,10.67-3.19,24.15-8.73,33.59a34.3,34.3,0,0,1-4.37,5.25c-1.69,1.91-3.67,1.65-6.07,1.19a27.47,27.47,0,0,1-7-2.68c-1.57-.77-3.33-1.92-3.33-3.68a3.29,3.29,0,0,1,2-2.67,15.22,15.22,0,0,1,3.39-.87c6.35-1.33,11.65-5.93,15.14-11.39a81.59,81.59,0,0,0,8.92-20.12" transform="translate(0 109.36)"/></g><path class="cls-8" d="M579.72,66.71A26,26,0,0,0,584,61.8a38.19,38.19,0,0,0,4.35-8.63,102.06,102.06,0,0,0,3.3-11.47,144.58,144.58,0,0,0,3.26-21.4c.21-2.76.29-5,.37-6.57a17.21,17.21,0,0,0,.07-1.78,2.15,2.15,0,0,1,.07-.62,3.21,3.21,0,0,1,0,.62v1.8c0,1.55,0,3.8-.18,6.57a127,127,0,0,1-3.1,21.52,95.87,95.87,0,0,1-3.31,11.52,37,37,0,0,1-4.48,8.7,24.58,24.58,0,0,1-4.47,4.86c-.47.38-1,.73-1.45,1.06a3.83,3.83,0,0,1-.54.31S578.56,67.78,579.72,66.71Z" transform="translate(0 109.36)"/></g><g id="freepik--Stairs--inject-9"><polygon class="cls-3" points="571.95 432.68 571.95 458.9 732.13 432.68 571.95 432.68"/><polygon class="cls-3" points="385.32 491.92 385.32 518.14 545.51 491.92 385.32 491.92"/><polygon class="cls-3" points="199.98 548.59 199.98 574.81 360.17 548.59 199.98 548.59"/><polygon class="cls-3" points="14.89 593.69 14.89 619.91 175.07 593.69 14.89 593.69"/><rect class="cls-6" x="571.95" y="413.05" width="160.18" height="19.64"/><g class="cls-12"><rect x="571.95" y="413.05" width="49.99" height="19.64"/></g><rect class="cls-6" x="385.33" y="472.28" width="160.18" height="19.64"/><g class="cls-12"><rect x="385.32" y="472.28" width="49.99" height="19.64"/></g><rect class="cls-6" x="199.98" y="528.94" width="160.18" height="19.64"/><g class="cls-12"><rect x="199.98" y="528.94" width="49.99" height="19.64"/></g><rect class="cls-6" x="14.64" y="574.04" width="160.18" height="19.64"/><g class="cls-12"><rect x="14.64" y="574.04" width="49.99" height="19.64"/></g><path class="cls-2" d="M113.35,393.18a4.35,4.35,0,1,0-4.36,4.35,4.35,4.35,0,0,0,4.36-4.35Z" transform="translate(0 109.36)"/></g></svg>