<?xml version="1.0" encoding="utf-8"?>
<!-- Generator: Adobe Illustrator 24.2.3, SVG Export Plug-In . SVG Version: 6.00 Build 0)  -->
<svg version="1.1" id="Layer_1" xmlns="http://www.w3.org/2000/svg" xmlns:xlink="http://www.w3.org/1999/xlink" x="0px" y="0px"
	 viewBox="0 0 750 500" style="enable-background:new 0 0 750 500;" xml:space="preserve">
<style type="text/css">
	.st0{fill:#EBEBEB;}
	.st1{fill:#E0E0E0;}
	.st2{fill-rule:evenodd;clip-rule:evenodd;fill:#F5F5F5;}
	.st3{fill-rule:evenodd;clip-rule:evenodd;fill:#EBEBEB;}
	.st4{fill:#0090D0;}
	.st5{opacity:0.5;enable-background:new    ;}
	.st6{fill:#263238;}
	.st7{fill:#FFBE9D;}
	.st8{fill:#EB996E;}
	.st9{fill:#455A64;}
	.st10{opacity:0.3;}
	.st11{opacity:0.4;}
	.st12{opacity:0.2;}
</style>
<g id="freepik--background-complete--inject-9">
	<path class="st0" d="M499.7,192.2c0,0-6.7,3.2,1.8,16.9s14.2,20.5,14.2,20.5s1.6,3.2-1.2,4s-9,0.2-10,3.8s1.9,6.8,7.4,9.3
		s17.4,8.5,18.4,9c1.1,0.5,2.2,2,0.4,2.8c-1.8,0.8-15.6,3.4-14,9.9s18.1,10.9,19.9,11.5s2.3,1.2,2.2,2.2s-4.8,1.4-8.7,2.3
		c-3.9,0.9-8.3,2.7-7,6.3c1.3,3.6,11.4,10.7,34.6,11l10.8-0.5l5.1-9.5c9.6-21.1,7.6-33.3,4.8-36c-2.8-2.7-6.2,0.5-8.7,3.6
		s-4.9,7.2-5.8,6.9s-1.3-1-1-2.9s3.3-18.6-1.9-22.9c-5.2-4.2-13.4,7.1-14.9,8.4s-2.4-0.4-2.4-1.6c0-1.2-0.4-14.5-0.3-20.5
		c0.1-6-1.7-10-5.3-10.6c-3.6-0.7-5.9,5.2-7.7,7.4s-4.1-0.6-4.1-0.6s-3.6-8-12.4-21.6c-8.8-13.6-14.4-9-14.4-9"/>
	<path class="st1" d="M570.3,303.1c-6.4-10-17.9-27.7-27.7-43s-18.6-29.1-25-39.2c-3.2-5.1-5.7-9.2-7.4-12l-2-3.3
		c-0.2-0.4-0.4-0.7-0.5-0.9l-0.2-0.3c0,0,0.1,0.1,0.2,0.3l0.5,0.8l2,3.2l7.5,11.9c6.3,10.1,15.2,23.9,25,39.2s21.3,33,27.6,43.1"/>
	<path class="st1" d="M535.4,225.3l-0.3,2.1c-0.2,1.8-0.6,4.2-0.9,6.9s-0.7,5.1-1,6.9c-0.2,0.9-0.3,1.6-0.4,2.1
		c0,0.3-0.1,0.5-0.2,0.8c0-0.3,0-0.5,0.1-0.8c0.1-0.6,0.2-1.3,0.3-2.1c0.2-1.8,0.6-4.2,0.9-6.9c0.3-2.7,0.7-5.2,1-6.9
		c0.2-0.9,0.3-1.6,0.4-2.1c0-0.3,0.1-0.5,0.2-0.8C535.4,224.7,535.4,225,535.4,225.3z"/>
	<path class="st1" d="M520.3,242.5c-6.2-1.1-11.2-2.1-11.2-2.2c0-0.1,5,0.7,11.2,1.9c6.2,1.1,11.2,2.1,11.2,2.2
		C531.5,244.4,526.5,243.6,520.3,242.5z"/>
	<path class="st1" d="M546.9,267.1c-0.5,0.1-1.2,0.2-2.1,0.3c-1.8,0.2-4.3,0.5-7.1,0.7s-5.3,0.2-7.1,0.2c-0.9,0-1.6,0-2.2,0
		c-0.3,0-0.5,0-0.8-0.1c0.3-0.1,0.5-0.1,0.8-0.1h2.2c1.8,0,4.3-0.1,7.1-0.3c2.8-0.2,5.3-0.4,7.1-0.6L546.9,267.1
		c0.2-0.1,0.5-0.1,0.8,0C547.4,267.1,547.2,267.1,546.9,267.1z"/>
	<path class="st1" d="M554.8,250.6c-0.2,0.5-0.5,1.1-0.8,1.8c-0.6,1.5-1.6,3.6-2.6,6s-2,4.5-2.7,6l-0.9,1.8
		c-0.1,0.2-0.2,0.4-0.4,0.6c0-0.2,0.1-0.5,0.2-0.7l0.8-1.8c0.6-1.5,1.6-3.6,2.6-6s2-4.5,2.7-6l0.9-1.8c0.1-0.2,0.2-0.4,0.4-0.6
		C555,250.2,555,250.4,554.8,250.6z"/>
	<path class="st1" d="M571.5,269.1l-1,2.3c-0.9,2-2.1,4.7-3.5,7.7s-2.6,5.7-3.6,7.7l-1.1,2.3c-0.1,0.3-0.3,0.6-0.5,0.8
		c0.1-0.3,0.2-0.6,0.3-0.9c0.2-0.6,0.6-1.4,1-2.4c0.9-2,2.1-4.7,3.5-7.7s2.6-5.7,3.6-7.6l1.1-2.3c0.1-0.3,0.3-0.6,0.5-0.8
		C571.8,268.5,571.7,268.8,571.5,269.1z"/>
	<path class="st1" d="M561,289.4l-2.7,0.3c-2.3,0.2-5.5,0.5-9,0.6c-3.5,0.1-6.7,0.1-9,0.1c-1.2,0-2.1-0.1-2.7-0.1
		c-0.3,0-0.7,0-1-0.1c0.3,0,0.7,0,1,0h2.7c2.3,0,5.5,0,9-0.2s6.7-0.3,9-0.5L561,289.4c0.3-0.1,0.7-0.1,1-0.1
		C561.7,289.4,561.4,289.4,561,289.4z"/>
	<path class="st1" d="M587.8,230.8c0,0.2,0,0.5,0,0.9c0.1,0.8,0.1,2.1,0.3,3.6c0.7,4.6,2.2,9.1,4.6,13.1l0.1,0.2h-0.2l0.1-0.2
		c6.6,11.6,16.4,28.9,28.2,49.6h-0.4l29.6-47.3c0.5-0.8,1-1.6,1.5-2.3l0.2,0.4h-0.4l0.2-0.4c2.2-3.8,3.7-8,4.4-12.3
		c0.3-2.1,0.5-4.3,0.4-6.4c0-1.1,0-2.1-0.2-3.2c-0.1-1-0.3-2.1-0.5-3.1c-1.6-8-5.8-15.2-11.9-20.5c-2.9-2.4-6.1-4.3-9.7-5.6
		l-1.3-0.5l-0.6-0.2l-0.7-0.2l-2.6-0.7c-1.7-0.3-3.4-0.5-5.2-0.6c-1.7-0.1-3.3-0.1-5,0.1c-0.8,0.1-1.6,0.2-2.4,0.4l-1.2,0.2
		c-0.4,0.1-0.8,0.2-1.2,0.3l-2.3,0.6l-2.2,0.8c-0.4,0.1-0.7,0.2-1.1,0.4l-1,0.5l-2,1c-4.6,2.6-8.5,6.2-11.5,10.5
		c-2.2,3.2-3.9,6.8-5,10.6c-0.4,1.4-0.7,2.8-0.9,4.2c-0.2,1-0.3,2.1-0.4,3.1c0,0.8-0.1,1.5-0.1,1.9s0,0.7,0,0.7s-0.1-0.2,0-0.7
		s0.1-1.1,0.1-1.9c0-1.1,0.2-2.1,0.3-3.1c0.2-1.4,0.5-2.8,0.9-4.2c1.1-3.8,2.8-7.4,5-10.7c3-4.3,6.9-8,11.5-10.6l2-1l1-0.5
		c0.3-0.2,0.7-0.3,1.1-0.4l2.2-0.8l2.3-0.6c0.4-0.1,0.8-0.2,1.2-0.3l1.2-0.2c0.8-0.1,1.6-0.3,2.4-0.4c1.7-0.2,3.4-0.2,5.1-0.1
		c1.8,0.1,3.5,0.3,5.2,0.6l2.6,0.7l0.7,0.2l0.6,0.2l1.3,0.5c3.5,1.4,6.8,3.3,9.7,5.7c6.2,5.3,10.5,12.6,12.1,20.7
		c0.2,1.1,0.3,2.1,0.5,3.2l0.2,3.2c0.1,2.2-0.1,4.3-0.5,6.5c-0.7,4.4-2.2,8.6-4.5,12.5l-0.2-0.4h0.4l-0.2,0.4l-1.5,2.3l-29.6,47.2
		l-0.2,0.3l-0.2-0.3l-28-49.7l-0.1-0.2h0.2l-0.1,0.2c-2.4-4.1-3.9-8.6-4.5-13.2c-0.2-1.6-0.3-3.3-0.3-4.9
		C587.7,230.4,587.8,230.6,587.8,230.8z"/>
	<path class="st1" d="M600.3,229.7c0-0.3,0-0.6,0-1.1c0-0.2,0-0.5,0-0.8s0.1-0.6,0.1-0.9c0.1-0.8,0.2-1.5,0.4-2.3
		c0.5-2.1,1.3-4.1,2.4-5.9c5.4-9.1,16.4-13.2,26.4-9.6c1,0.3,2,0.7,2.9,1.2c0.9,0.5,1.9,1.1,2.7,1.7c0.9,0.7,1.7,1.4,2.5,2.1
		c0.8,0.8,1.5,1.7,2.2,2.6c1.4,1.8,2.5,3.9,3.2,6.1c0.7,2.3,1.1,4.6,1.2,7c0,2.4-0.4,4.7-1.1,7c-0.7,2.2-1.8,4.2-3.2,6.1
		c-0.6,0.9-1.3,1.8-2.1,2.6c-0.8,0.8-1.6,1.5-2.5,2.1c-1.7,1.3-3.6,2.3-5.6,3c-9.9,3.6-21.1-0.3-26.5-9.4c-1.1-1.8-1.9-3.8-2.4-5.9
		c-0.2-0.7-0.3-1.5-0.4-2.3c0-0.3-0.1-0.6-0.1-0.9v-0.8c0-0.4,0-0.7,0-1c0-0.1,0-0.2,0-0.4c0,0.1,0,0.2,0,0.4c0,0.2,0.1,0.6,0.1,1
		v0.8c0,0.3,0.2,0.6,0.2,0.9c0.1,0.8,0.3,1.5,0.5,2.2c0.5,2,1.3,4,2.4,5.8c5.4,8.9,16.3,12.8,26.1,9.2c0.9-0.3,1.8-0.7,2.6-1.2
		c0.9-0.5,1.8-1.1,2.7-1.7c0.9-0.6,1.7-1.4,2.5-2.1c0.8-0.8,1.5-1.6,2.1-2.5c1.3-1.8,2.4-3.8,3.1-6c1.5-4.4,1.5-9.2,0-13.7
		c-0.7-2.2-1.8-4.2-3.1-6c-0.7-0.9-1.4-1.7-2.1-2.5c-0.8-0.7-1.6-1.4-2.5-2.1c-0.8-0.6-1.7-1.2-2.7-1.7c-0.9-0.5-1.9-0.9-2.8-1.2
		c-9.8-3.5-20.7,0.4-26,9.3c-1.1,1.8-1.9,3.7-2.4,5.8c-0.2,0.7-0.4,1.5-0.5,2.2c0,0.3-0.1,0.6-0.1,0.9s0,0.5,0,0.8
		C600.3,229,600.3,229.4,600.3,229.7c0,0.1,0,0.2,0,0.3C600.3,229.9,600.3,229.8,600.3,229.7z"/>
	<polygon class="st1" points="608.4,222.2 612.6,218.8 623.7,232.9 632.2,226.9 635.3,231.4 622.6,240.2 	"/>
	<path class="st2" d="M266.6,75.9l3.6-9.7l17,2.3l0.9,10.3c3.5,1.4,6.7,3.3,9.7,5.6l9.5-4.3l10.4,13.7l-6.6,8
		c1.4,3.5,2.4,7.1,2.9,10.8l9.7,3.6l-2.3,17l-10.3,0.9c-1.4,3.5-3.3,6.7-5.6,9.7l4.3,9.4l-13.7,10.4l-8-6.7
		c-3.5,1.5-7.1,2.4-10.8,2.9l-3.6,9.7l-17-2.3l-0.9-10.3c-3.5-1.4-6.7-3.3-9.7-5.6l-9.4,4.3L226,142l6.7-8
		c-1.4-3.5-2.4-7.1-2.9-10.9l-9.7-3.6l2.3-17l10.3-0.9c1.4-3.5,3.3-6.7,5.6-9.7l-4.3-9.4l13.7-10.4l8,6.7
		C259.2,77.3,262.8,76.3,266.6,75.9L266.6,75.9z M253.1,113.4c-0.3,1.2-0.5,2.5-0.5,3.7c-0.3,10.2,7.6,18.7,17.8,19
		c10.2,0.3,18.7-7.6,19-17.8s-7.6-18.7-17.8-19C262.9,99.1,255.2,104.9,253.1,113.4z"/>
	<path class="st3" d="M421.5,130.3l2.4-6.3l11.1,1.4l0.6,6.7c2.2,0.9,4.4,2.2,6.3,3.7l6.1-2.8l6.8,8.9l-4.4,5.2
		c0.9,2.2,1.5,4.6,1.9,7l6.3,2.4l-1.5,11.1l-6.7,0.6c-0.9,2.2-2.2,4.4-3.7,6.3l2.8,6.1l-8.9,6.8l-5.2-4.3c-2.2,0.9-4.6,1.5-7,1.9
		l-2.4,6.3l-11-1.5l-0.6-6.7c-2.2-0.9-4.4-2.2-6.3-3.6l-6.1,2.8l-6.7-8.9l4.3-5.2c-0.9-2.2-1.6-4.6-1.9-7l-6.3-2.4l1.5-11l6.7-0.6
		c0.9-2.2,2.2-4.4,3.7-6.3l-2.8-6.1l8.9-6.8l5.2,4.3C416.7,131.2,419.1,130.6,421.5,130.3L421.5,130.3z M424.8,145.5
		c-5.7-0.2-10.7,3.7-12,9.1c-0.2,0.8-0.3,1.7-0.3,2.5c-0.2,6.6,5,12.1,11.7,12.3c6.6,0.2,12.1-5,12.3-11.7S431.4,145.7,424.8,145.5
		L424.8,145.5z"/>
	<path class="st0" d="M325.1,214c-3.1,3-5.1,6.9-5.7,11.1c-0.9,6.3,1.5,12.7,6.3,16.9c1.4,1.2,2.9,2.2,4.5,2.9
		c1.7,0.8,3.5,1.3,5.4,1.6c8.1,1.1,16-3.2,19.4-10.6c1.6-3.4,2.1-7.1,1.6-10.8c-0.5-3.3-1.9-6.5-4-9.1c-1.8-2.3-4.2-4.1-6.8-5.3
		c-3.9-1.8-8.3-2.2-12.5-1.2c-3,0.7-4.4,1.6-4.5,1.5c1.3-0.9,2.8-1.6,4.4-2c4.3-1.2,8.9-0.9,12.9,0.9c2.8,1.2,5.3,3.1,7.3,5.4
		c2.3,2.7,3.7,6,4.3,9.5c0.3,1.9,0.3,3.8,0.1,5.7c-0.2,2-0.8,3.9-1.7,5.7c-3.6,7.9-12,12.5-20.6,11.3c-2-0.2-3.9-0.8-5.7-1.7
		c-1.7-0.8-3.4-1.8-4.8-3.1c-2.6-2.4-4.6-5.4-5.7-8.7c-0.9-2.9-1.2-6-0.7-9.1c0.7-4.4,2.9-8.4,6.2-11.4c1.2-1.1,2.5-2,4-2.6
		C328.9,211.1,327.3,211.9,325.1,214z"/>
	<path class="st0" d="M307.9,194.7l-0.6-2c-0.5-1.8-1.3-4.4-2.3-7.7v-0.1l0.1-0.1l15.7-8.8l0.2-0.1l0.1,0.2l7.2,8.1l-0.3-0.1
		c3.8-1,7.8-1.4,11.8-1.3l-0.3,0.2c1.6-3,3.4-6.2,5.3-9.5l0.1-0.3l0.3,0.1l17.3,5l0.3,0.1v0.4c-0.2,3.4-0.4,7.1-0.6,10.9l-0.2-0.4
		c3.4,2.1,6.5,4.5,9.3,7.4l-0.5-0.1l10.5-3l0.4-0.1l0.2,0.4l8.7,15.8l0.2,0.4l-0.3,0.3c-2.5,2.2-5.3,4.7-8.1,7.2l0.2-0.5
		c1,3.9,1.4,7.8,1.3,11.8l-0.3-0.5l9.5,5.3l0.4,0.2l-0.1,0.4l-5,17.3l-0.1,0.4h-0.4l-10.9-0.7l0.5-0.3c-2.1,3.4-4.6,6.5-7.4,9.3l0,0
		c0.1-0.2-0.1,0.6,0.1-0.5l0,0v0.1v0.1l0,0.2l0.1,0.3l0.2,0.7l0.4,1.3l0.8,2.6c0.5,1.7,1,3.5,1.5,5.2l0.1,0.4l-0.4,0.2l-15.8,8.7
		l-0.4,0.2l-0.3-0.3L349,271l0.5,0.2c-3.9,0.9-7.8,1.4-11.8,1.3l0.5-0.3l-5.3,9.5l-0.2,0.4l-0.4-0.1l-17.3-5.1l-0.4-0.1v-0.4
		c0.2-3.7,0.5-7.3,0.7-10.9l0.2,0.5c-3.4-2.1-6.5-4.6-9.2-7.4l0.5,0.1l-10.5,3l-0.4,0.1l-0.2-0.3l-8.6-15.8l-0.2-0.3l0.3-0.2
		l8.2-7.2l-0.1,0.4c-0.9-3.9-1.4-7.8-1.2-11.8l0.2,0.3l-9.5-5.3l-0.2-0.1l0.1-0.2c2-6.7,3.7-12.4,5.1-17.3l0.1-0.2h0.2l10.9,0.7
		l-0.2,0.1c1.5-2.5,3.4-4.9,5.4-7.1c0.7-0.7,1.2-1.2,1.6-1.5c0.2-0.2,0.4-0.3,0.5-0.5c-0.2,0.2-0.3,0.4-0.5,0.5l-1.5,1.6
		c-2,2.2-3.7,4.6-5.2,7.1l-0.1,0.1h-0.1l-10.9-0.6l0.3-0.2c-1.4,4.9-3.1,10.6-5,17.3l-0.1-0.4l9.5,5.2l0.2,0.1v0.2
		c-0.1,3.9,0.4,7.8,1.3,11.6l0,0.2l-0.2,0.2l-8.1,7.2l0.1-0.5l8.7,15.8l-0.5-0.2l10.5-3l0.3-0.1l0.2,0.2c2.7,2.8,5.7,5.2,9.1,7.2
		l0.3,0.1v0.3c-0.2,3.5-0.4,7.2-0.6,10.9l-0.4-0.5l17.3,5l-0.6,0.2c1.7-3.1,3.5-6.3,5.3-9.5l0.1-0.3h0.3c3.9,0.1,7.8-0.3,11.5-1.3
		l0.3-0.1l0.1,0.2l7.2,8.1l-0.7-0.1l15.8-8.7l-0.3,0.6c-0.5-1.7-1-3.5-1.5-5.2l-0.8-2.6l-0.4-1.3l-0.2-0.6l-0.1-0.3v-0.2v-0.1v-0.1
		l0,0c0.3-1.1,0.1-0.3,0.2-0.6l0,0c2.8-2.7,5.2-5.7,7.2-9l0.2-0.3h0.3l10.9,0.7l-0.6,0.4l5-17.3l0.3,0.6l-9.5-5.3l-0.3-0.2v-0.3
		c0.1-3.9-0.3-7.7-1.2-11.5l-0.1-0.3l0.2-0.2l8.1-7.2l-0.1,0.6l-8.7-15.9l0.6,0.2l-10.5,3l-0.3,0.1l-0.2-0.2c-2.7-2.8-5.7-5.3-9-7.3
		l-0.2-0.1v-0.3c0.2-3.8,0.5-7.5,0.7-10.9l0.3,0.4L345,174l0.5-0.2c-1.9,3.3-3.7,6.5-5.3,9.5l-0.1,0.2h-0.2
		c-3.9-0.1-7.8,0.3-11.6,1.2l-0.2,0.1l-0.1-0.1l-7.2-8.2l0.3,0.1l-15.8,8.6l0.1-0.2l2.2,7.9c0.2,0.9,0.4,1.5,0.5,2
		c0.1,0.2,0.1,0.4,0.1,0.7C308.1,195.2,308,195,307.9,194.7z"/>
	<polygon class="st0" points="217.7,150 281.5,151.1 265.8,213.5 	"/>
	
		<rect x="116.1" y="202.8" transform="matrix(0.7966 -0.6045 0.6045 0.7966 -95.0146 159.4614)" class="st0" width="146.7" height="36.3"/>
</g>
<g id="freepik--Character--inject-9">
	<path class="st4" d="M133.5,365.8l-11.5,29.2l36.2,14.5c1.2-3.6-14.8-18-14.8-18l8.1-18.4L133.5,365.8z"/>
	<path class="st5" d="M133.5,365.8l-11.5,29.2l36.2,14.5c1.2-3.6-14.8-18-14.8-18l8.1-18.4L133.5,365.8z"/>
	<path class="st6" d="M158.3,409.4c0.6-1.1-0.7-2.4-0.7-2.4l-34.3-15l-1.3,2.9L158.3,409.4z"/>
	<path class="st4" d="M70.7,389.8L56,417.5L90.3,436c1.6-3.4-12.7-19.6-12.7-19.6l10.2-17.4L70.7,389.8z"/>
	<path class="st5" d="M70.7,389.8L56,417.5L90.3,436c1.6-3.4-12.7-19.6-12.7-19.6l10.2-17.4L70.7,389.8z"/>
	<path class="st6" d="M90.3,436c0.8-1-0.4-2.5-0.4-2.5l-32.3-18.7l-1.6,2.7L90.3,436z"/>
	<path class="st7" d="M135.5,107.4l1.4-0.8c9.7-5.5,21.7-5.3,31.2,0.4l0,0c0,0-1.3,20.4-2.7,29.2s-10.3,8.9-10.3,8.9l-0.7,12.5
		l-22.3-1.7L135.5,107.4z"/>
	<path class="st8" d="M155,147.4c-8.9-0.4-10.8-7.3-10.8-7.3c3.1,2.7,6.9,4.4,11,4.9L155,147.4z"/>
	<path class="st7" d="M134.4,125.3c0,0.2-6.2,0.8-5.6-5.3s6.3-3.5,6.4-3.4C135.3,116.6,134.4,125.1,134.4,125.3z"/>
	<path class="st8" d="M132.5,123.1c-0.3,0.2-0.7,0.2-1,0.1c-0.9-0.6-1.4-1.7-1.3-2.8c0-0.6,0.2-1.1,0.5-1.6c0.2-0.5,0.7-0.8,1.2-0.8
		c0.2,0,0.4,0.1,0.6,0.2c0.1,0.1,0.2,0.2,0.2,0.4c0,0.3-0.1,0.3-0.1,0.3s0.1-0.1,0-0.3c-0.1-0.2-0.3-0.4-0.6-0.4
		c-0.4,0.1-0.7,0.4-0.9,0.7c-0.3,0.4-0.4,1-0.5,1.5c-0.1,0.9,0.2,1.9,1,2.5c0.2,0.1,0.5,0.1,0.8,0.1c0.2-0.1,0.3-0.1,0.3-0.1
		C132.8,122.8,132.8,122.9,132.5,123.1z"/>
	<path class="st6" d="M164.3,120.8c0-0.7-0.5-1.3-1.1-1.3c-0.7-0.1-1.3,0.4-1.4,1.1c0,0,0,0,0,0c0,0.7,0.5,1.2,1.1,1.3
		C163.6,122,164.2,121.5,164.3,120.8C164.3,120.8,164.3,120.8,164.3,120.8z"/>
	<path class="st6" d="M164.3,118.4c-0.5-0.5-1.2-0.8-1.9-0.9c-0.7-0.1-1.4,0-2.1,0.3c-0.5,0.2-0.7,0.4-0.6,0.6s1.2-0.3,2.6-0.2
		s2.2,1,2.4,0.9C164.8,119.1,164.7,118.7,164.3,118.4z"/>
	<path class="st6" d="M151.2,119.3c0-0.7-0.5-1.3-1.1-1.3c-0.7-0.1-1.3,0.4-1.4,1.1c0,0,0,0,0,0c0,0.7,0.5,1.2,1.1,1.3
		C150.5,120.4,151.1,120,151.2,119.3C151.2,119.3,151.2,119.3,151.2,119.3z"/>
	<path class="st6" d="M151,116.8c-0.5-0.5-1.2-0.8-1.9-0.9c-0.7-0.1-1.4,0-2.1,0.3c-0.5,0.2-0.8,0.4-0.6,0.6s1.2-0.4,2.6-0.2
		s2.2,1,2.4,0.9C151.5,117.4,151.4,117.1,151,116.8z"/>
	<path class="st6" d="M157.1,128.6c0.2,0,0.4,0,0.6,0c0.3,0,0.5-0.2,0.6-0.4c0.2-0.4,0.2-0.9,0-1.4l-0.6-2.8
		c-0.4-2.4-1.1-4.8-1.9-7.1c0.2,2.4,0.7,4.8,1.3,7.2c0.2,1,0.5,1.9,0.7,2.8c0.1,0.3,0.2,0.7,0.1,1c-0.1,0.2-0.4,0.2-0.8,0.2
		c-0.8-0.1-1.5,0-2.2,0.1C155.6,128.4,156.4,128.5,157.1,128.6z"/>
	<path class="st6" d="M150.5,129.5c0,0.8,0.3,1.6,0.8,2.2c0.6,0.6,1.4,1,2.2,1.1c0.7,0.1,1,0,1-0.2s-1.5-0.3-2.7-1.5
		s-0.9-2.7-1.1-2.7C150.7,128.6,150.5,128.9,150.5,129.5z"/>
	<path class="st6" d="M151.8,111.5c-0.7-0.4-1.5-0.6-2.4-0.6c-0.8,0-1.6,0.1-2.4,0.5c-0.6,0.3-0.8,0.6-0.8,0.8
		c0.1,0.4,1.5,0.1,3.1,0.1s2.9,0.3,3.1,0C152.6,112.1,152.3,111.8,151.8,111.5z"/>
	<path class="st6" d="M164.5,114.3c-0.5-0.5-1.1-0.8-1.7-0.9c-0.7-0.1-1.3,0-1.9,0.2c-0.5,0.2-0.6,0.5-0.6,0.7
		c0.2,0.3,1.2,0.2,2.3,0.4s2,0.6,2.3,0.3C164.9,115,164.8,114.7,164.5,114.3z"/>
	<path class="st6" d="M171.5,104.9c0.6,0.8,0.6,1.9,0.1,2.8c-0.5,0.9-1.3,1.5-2.3,1.9c-0.8,0.4-1.6,0.6-2.5,0.7h-0.1h-0.1h-0.2
		c-3.8,0.2-7.6-0.7-10.8-2.7c-8.6-6-11.2-4-12.4-3.2s-0.5,7.7-5.2,8.8c0,0-0.1,6.9-3.7,6.3c-2.1-0.3-1.8-6.1-1.2-10.9
		c0-0.1,0-0.2,0-0.3c-0.3-1.3-0.4-2.7-0.5-4.1c0-2.1,0.7-4,2.1-5.6c1.4-1.5,3.6-2,5.6-1.3c3-5.5,9.8-7.5,15.3-4.6
		c1.2,0.7,2.4,1.6,3.6,2.3c1.2,0.8,2.6,1.1,4,1.1c1.4-0.2,2.8-1.1,4.2-0.8c0.1,0,0.2,0,0.3,0.1c1.4,0.5,2.1,2.1,1.6,3.5
		c0.9-0.7,2.2-0.6,3,0.2c0.8,0.8,1.1,2,0.8,3.1C172.9,103.1,172.3,104.1,171.5,104.9z"/>
	<polygon class="st0" points="133,136.5 132.5,140.9 154.2,187.6 155.2,152.7 	"/>
	<path class="st6" d="M126,256l-1.4,34.6l26.3,21.5l0.3,3.3l-21.5,53.3l23,11.3c0,0,32.2-60.8,33.2-69s-44.2-53.9-45-54.2L126,256z"
		/>
	<path class="st6" d="M126,256l-35.2-7.3l-1.8,18l3.2,63.7l-28.5,67.4l23.3,9.4c0,0,31.4-61.3,33.5-65s9.9-75.5,10.5-76.3L126,256z"
		/>
	<path class="st9" d="M121,340.3c0.1-0.5,0.2-1.2,0.2-2.1c0.2-1.9,0.6-4.5,1-7.6c0.9-6.5,2.1-15.4,3.5-25.2s2.7-18.7,3.6-25.2
		l1.2-7.6c0.1-0.9,0.2-1.6,0.3-2.1s0.2-0.7,0.2-0.7c0,0.2,0,0.5,0,0.7l-0.2,2.1c-0.2,1.9-0.6,4.5-1,7.7c-0.9,6.5-2.1,15.4-3.5,25.2
		s-2.7,18.7-3.6,25.2c-0.5,3.2-0.9,5.8-1.2,7.6c-0.1,0.9-0.2,1.6-0.3,2.1c0,0.2-0.1,0.5-0.2,0.7C121,340.8,121,340.5,121,340.3z"/>
	<path class="st9" d="M94.6,334c0.6,1.8,1.1,3.7,1.4,5.6c-0.8-1.8-1.4-3.7-1.8-5.5c-0.6-1.9-1.1-3.8-1.4-5.7
		C93.6,330.2,94.2,332.1,94.6,334z"/>
	<path class="st9" d="M89.3,344.7c2.5-4.3,3.6-9.2,3-14.1c0.3,0.7,0.4,1.4,0.4,2.1c0.3,3.5-0.4,7.1-2.2,10.2
		C90.2,343.6,89.8,344.2,89.3,344.7L89.3,344.7z"/>
	<path class="st9" d="M155.2,310.5c-1.8,1.6-2.9,3.2-3,3.2c1.4-2.7,3.7-4.8,6.5-5.9C158.7,307.9,156.9,308.9,155.2,310.5z"/>
	<path class="st9" d="M153.3,308.4c-0.5,1-1.1,1.9-1.7,2.9c0.2-1.1,0.6-2.2,1.3-3.1c0.5-1,1.3-1.9,2.2-2.5
		C154.6,306.6,154,307.5,153.3,308.4z"/>
	<path class="st4" d="M154.1,182.2c0.2-6.1,0-12.2-0.7-18.2c-0.5-4.2-2.5-8.1-5.6-10.9l-16-14.6l-1.5,0.9l-0.4,3.9l-1.3,0.6
		c-2.1,1.2-16.9,11.1-17.8,14.1s-2.4,9.9-2.4,9.9l-9.8,48.5c0,0-11,24.6-23.8,36.5c0,0,4.8,7.1,12.2,9.2l-3.5-3.5
		c0,0,20.8,2.6,30.4,5.6c8.3,2.6,27.6,5.3,27.6,5.3l4.7-40l5.8-28.7C152,200.9,153.9,188,154.1,182.2z"/>
	<path class="st4" d="M121.7,165.4l1.1,23.8c0,0,3,33.1,5.5,36.6c1.9,2.6,50.3-1.2,50.3-1.2l-0.1-18.2l-30.5-0.6
		c0,0,4.4-42.3,2.9-46.2s-10-8.4-10-8.4C124.5,147.3,121.7,165.4,121.7,165.4z"/>
	<g class="st10">
		<path d="M146.8,226.6c0,0-9.4,0.7-13.3,0.3c-1.4-0.1-2.9-0.2-4-1.1c-0.9-0.8-1.5-1.8-1.9-3c-3.1-8.2-4.2-27.9-4.2-27.9
			c-1,2.8-2.4,7.9-2,10.8s1.1,5.6,1.3,8.5c0.2,3.3-0.3,6.7,0.9,9.8c1.6,4,6,6.4,10.3,6.7c4.1,0.5,8.3,0.1,12.2-1.1"/>
	</g>
	<path class="st6" d="M121.8,168.5c0,0.3,0.1,0.7,0.1,1.3c0.1,1.1,0.2,2.7,0.3,4.9s0.3,4.7,0.5,7.7s0.4,6.4,0.7,10.2
		s0.7,7.9,1.2,12.3s1.1,9.1,1.9,14c0.2,1.2,0.5,2.5,0.8,3.7c0.4,1.2,1.1,2.3,2,3.1c1,0.8,2.2,1.3,3.5,1.2c1.3,0.1,2.6,0,4,0
		c5.4-0.1,11-0.4,16.8-0.7c8.6-0.5,17-1,24.8-1.5l-0.2,0.2c-0.1-6.4-0.1-12.5-0.1-18.1l0.2,0.2L149,206l-8.2-0.3l-2.2-0.1
		c-0.5-0.1-0.7-0.1-0.7-0.1s0.2,0,0.7,0h2.2l8.2,0.1l29.4,0.6h0.2v0.2c0,5.6,0.1,11.7,0.1,18.1v0.2h-0.2c-7.8,0.6-16.1,1.1-24.8,1.6
		c-5.8,0.3-11.4,0.6-16.8,0.7c-1.3,0-2.7,0-4,0c-1.4,0-2.7-0.4-3.8-1.4c-1-0.9-1.8-2-2.2-3.3c-0.4-1.2-0.6-2.5-0.8-3.7
		c-0.8-4.9-1.4-9.6-1.8-14.1s-0.8-8.5-1.2-12.3s-0.5-7.2-0.7-10.2s-0.3-5.6-0.4-7.7s-0.2-3.7-0.2-4.9
		C121.8,169.2,121.8,168.7,121.8,168.5c0-0.2,0-0.4,0-0.5C121.8,168.2,121.8,168.3,121.8,168.5z"/>
	<path class="st6" d="M172.3,215.5c-0.1-2.9,0-5.9,0.2-8.8c0.3,2.9,0.4,5.9,0.3,8.8c0.1,2.9,0,5.9-0.2,8.8
		C172.4,221.4,172.3,218.5,172.3,215.5z"/>
	<path class="st6" d="M175.2,209.6c-0.2,0.1-0.3,0.3-0.3,0.5c0,0.3,0.1,0.5,0.4,0.6c0.2,0.1,0.5,0.1,0.7-0.1
		c0.2-0.1,0.3-0.4,0.2-0.6c0-0.4-0.2-0.6-0.2-0.7s0.4,0.1,0.5,0.6c0.1,0.3,0,0.7-0.3,0.9c-0.2,0.2-0.6,0.4-0.9,0.3
		c-0.6-0.1-1-0.6-0.9-1.2c0-0.4,0.3-0.7,0.6-0.8c0.6-0.2,0.9,0.2,0.8,0.2C175.8,209.6,175.5,209.4,175.2,209.6z"/>
	<path class="st4" d="M99.1,218.4c0,0-2.6,1.6-5.8-2.3s-4.7-12-2.8-17.6s17.8-26.4,17.8-26.4L99.1,218.4z"/>
	<path class="st6" d="M103.7,217.2c1.4,0.1,2.7,0.5,4,0.9c-1.4,0-2.7-0.1-4.1-0.4c-1.4-0.2-2.7-0.5-4-0.9
		C101,216.7,102.3,216.9,103.7,217.2z"/>
	<path class="st6" d="M96.4,233.2c-0.2,0.7-0.5,1.8-0.9,3.1c-1.1,3.3-2.5,6.6-4.1,9.7c-1.6,3.1-3.5,6.1-5.5,9
		c-0.8,1.1-1.4,2-1.9,2.6c-0.2,0.3-0.5,0.6-0.8,0.9c0.2-0.4,0.4-0.7,0.6-1c0.4-0.6,1-1.5,1.8-2.7c1.9-2.9,3.7-6,5.3-9.1
		c1.6-3.1,3-6.3,4.3-9.6c0.5-1.3,0.8-2.3,1.1-3c0.1-0.4,0.3-0.7,0.4-1.1C96.6,232.4,96.5,232.8,96.4,233.2z"/>
	<g class="st10">
		<path d="M95.3,235.2c-2.2,7.5-5.7,14.5-10.5,20.7c-0.2,0.4-0.6,0.7-1,0.8c-0.7,0.1-1.3-0.3-1.6-0.9c-1-1.5-0.5-3.6,0.5-5.1
			c1.1-1.4,2.5-2.7,3.9-3.8c3.8-3.5,6.4-8,8.9-12.5"/>
	</g>
	<g class="st10">
		<path d="M99.1,216.2l7.8-41l-1.5,5.8c-1.8,7.8-4.4,15.3-7.7,22.6c-1.1,2.4-2.3,4.9-2.6,7.5s0.4,5.6,2.6,7.2L99.1,216.2z"/>
	</g>
	<path class="st6" d="M133.4,146.8c-1.1-0.9-1.9-2.1-2.6-3.3c1.1,0.9,2.1,1.9,3,3c1.1,0.9,2.1,1.9,3,2.9
		C135.6,148.8,134.4,147.9,133.4,146.8z"/>
	<path class="st6" d="M139.1,153.1c0.6,0.2,1.2,0.4,1.8,0.6c3.9,1.7,6.9,4.8,8.6,8.7c0.2,0.6,0.4,1.2,0.6,1.8
		c0.1,0.2,0.1,0.5,0.1,0.7c0,0-0.3-0.9-1-2.3c-1.8-3.7-4.7-6.7-8.4-8.5c-1.4-0.7-2.3-1-2.3-1.1C138.7,153,138.9,153,139.1,153.1z"/>
	<path class="st6" d="M96,222.1l0.6-1.2c0.5-1.1,1.2-2.7,2.1-4.5l0,0c0.9-4.6,2.2-11.2,3.8-18.6c1.5-6.9,2.8-13.2,3.8-17.8
		c0.5-2.2,0.9-4.1,1.2-5.4c0.1-0.6,0.3-1.1,0.3-1.5c0-0.2,0.1-0.3,0.2-0.5c0,0.2,0,0.3,0,0.5c-0.1,0.4-0.2,0.9-0.3,1.5l-1,5.4
		c-1,4.6-2.2,10.9-3.7,17.9c-1.5,7.4-2.9,14-3.9,18.5l0,0c-0.9,1.8-1.7,3.4-2.3,4.5l-0.6,1.2c-0.1,0.1-0.1,0.3-0.2,0.4
		C95.9,222.3,96,222.2,96,222.1z"/>
	<path class="st6" d="M148.6,204.3c0.1-1.1,0.2-2.5,0.3-4.1c0.3-3.5,0.7-8.3,1.1-13.6s0.9-10.1,1.3-13.6c0.2-1.7,0.3-3.1,0.5-4.1
		c0-0.5,0.1-1,0.2-1.5c0,0.5,0,1,0,1.5c-0.1,1.1-0.2,2.4-0.3,4.1c-0.3,3.5-0.7,8.3-1.1,13.6s-0.9,10.1-1.3,13.6
		c-0.2,1.7-0.3,3.1-0.4,4.1c0,0.5-0.1,1-0.2,1.5C148.5,205.4,148.5,204.8,148.6,204.3z"/>
	<path class="st7" d="M178.2,223.6c0.3,0.1,14.2-2.1,14.2-2.1s5.7-0.5,5.7-3c-0.1-0.8-0.6-1.6-1.4-1.9l1-0.2
		c0.4-0.1,0.8-0.3,1.1-0.6c0.9-0.9,0.9-2.3,0-3.2l-0.3-0.3c0,0,2.3-0.4,2.3-2.3c0-1.1-0.7-2.1-1.8-2.4c0.8-0.2,1.4-0.8,1.6-1.7
		c0-0.1,0-0.2,0-0.2c0-1.3-1.1-2.4-2.4-2.3c-3.4-0.1-10.7-0.2-11.9,0c-1.6,0.3-8.2,5.3-8.2,5.3S177.9,223.5,178.2,223.6z"/>
	<path class="st7" d="M196.7,199.6c-0.3-0.5-1-0.6-1.5-0.3c-0.4,0.3-0.8,0.7-1.1,1.1c-0.8,1-6.6,3-6.6,3l7.8,0.3
		c1.4-0.8,1.6-2.6,1.7-3.4C196.9,200,196.9,199.8,196.7,199.6z"/>
	<path class="st8" d="M194.7,203c1.2-0.1,2.4,0,3.5,0.2c-1.2,0.2-2.4,0.3-3.5,0.2c-1.2,0.1-2.4,0-3.5-0.2
		C192.3,203.1,193.5,203,194.7,203z"/>
	<path class="st8" d="M195.9,207.4c1-0.1,2-0.1,3,0c-1,0.4-2,0.6-3,0.5c-1,0.1-2.1,0-3.1-0.3C193.9,207.4,194.9,207.4,195.9,207.4z"
		/>
	<path class="st8" d="M189.7,207.4c0.3,0.2,0.6,0.4,0.6,0.5s-0.4,0.2-0.9-0.1s-0.6-0.7-0.5-0.8C189.1,207,189.4,207.2,189.7,207.4z"
		/>
	<path class="st8" d="M195.4,212.2c1.1-0.1,2.2-0.1,3.4,0.1c-2.2,0.4-4.4,0.5-6.7,0.2C193.1,212.3,194.2,212.1,195.4,212.2z"/>
	<path class="st8" d="M188.1,211.7c0.4,0.6,1.1,0.7,1.1,0.8s-0.2,0.1-0.5,0.1c-0.8-0.1-1.4-0.9-1.4-1.7c0-0.3,0.2-0.4,0.2-0.4
		C187.7,210.5,187.7,211.2,188.1,211.7z"/>
	<path class="st8" d="M193.9,216.7c1-0.2,2-0.2,3-0.1c-1,0.4-2,0.6-3,0.6c-1,0.2-2,0.2-3,0.1C191.8,217,192.8,216.8,193.9,216.7z"/>
	<path class="st8" d="M187.2,216.1c0.5,0.6,0.9,1,0.9,1.1s-0.7-0.1-1.3-0.8c-0.2-0.3-0.4-0.6-0.4-1c0-0.3,0.1-0.5,0.2-0.5
		C186.6,214.9,186.7,215.5,187.2,216.1z"/>
	<path class="st4" d="M89.5,262.4c0.3-1.1,0.5-2.1,0.8-3.2c0.1-0.2,0.1-0.4,0-0.5c-0.1-0.2-0.3-0.4-0.6-0.4c-2-0.7-4.2-1.1-6.4-1.1
		c-0.2,0-0.4,0-0.6,0.2c-0.2,0.2-0.1,0.6,0.1,0.9C84.3,260.7,86.8,262.2,89.5,262.4"/>
	<g class="st11">
		<path d="M89.5,262.4c0.3-1.1,0.5-2.1,0.8-3.2c0.1-0.2,0.1-0.4,0-0.5c-0.1-0.2-0.3-0.4-0.6-0.4c-2-0.7-4.2-1.1-6.4-1.1
			c-0.2,0-0.4,0-0.6,0.2c-0.2,0.2-0.1,0.6,0.1,0.9C84.3,260.7,86.8,262.2,89.5,262.4"/>
	</g>
	<path class="st0" d="M154.7,160.5c0,0,1.9,1.7,2.8,2.3s-2.3-10.1-2.3-10.1L154.7,160.5z"/>
	<path class="st6" d="M154.8,165.9c0.5,0.5,1.2,0.8,1.9,0.8c0.7-0.2,0.5-2.3,0.4-3.5c-0.1-0.5-0.2-0.9-0.3-1.4l-1.7-4.2L154.8,165.9
		z"/>
	<path class="st6" d="M95.5,166.7l7.5,4.7c5.5-3.6,11.8-5.5,18.3-5.6c10.4,0,15.3,15.8,26.9,14.4s9-12.8,9-14.4l-2.3-0.7
		c0,0,0.4,7.8-10.6,7.8c-5.6,0-7.4-9.4-16.8-15.3s-26.6,0.8-26.6,0.8L95.5,166.7z"/>
	<path class="st9" d="M139.3,177.6c-2.6-1.9-5-4-7.2-6.4c-0.2-0.3-0.5-0.5-0.8-0.8c-4.6-4.3-9.4-6.8-17.2-4.6
		c-3.9,1.1-7.6,2.6-11.2,4.5l-6.3-4.1l4.9-6.6c7.6-5,18.6-3.8,23.4-2c4.8,1.8,10.5,8.8,13.1,14.9c1.3,3.2,3.6,5.8,6.6,7.6
		C143.6,180,141.6,179.1,139.3,177.6z"/>
</g>
<g id="freepik--Flag--inject-9">
	<path class="st4" d="M472.4,73.9c0,0,0.8,14.5,10,26.4c14.5,18.8,36,12.9,36,12.9c15.3-3.8,14.5-29.8,30.2-29.1
		c9.5,0.3,29.1,21.3,29.1,21.3l2.5-56c-9-4.8-19.3-10-29.5-10.8c-10.2-0.9-21.6,3.4-25.9,12.7c-3.1,6.7-4.1,14-6.3,21
		c-2.4,7.5-9.8,16.1-19.9,14.5C479.5,83.9,472.4,73.9,472.4,73.9z"/>
	<path class="st6" d="M575.1,173c-3.3,73.4-6,132.9-6.2,132.9c-0.1,0,2.4-59.5,5.7-132.9s6-132.9,6.2-132.9
		C580.9,40.2,578.3,99.7,575.1,173z"/>
	<g class="st12">
		<path d="M526.6,69.6c-0.4,8.9-2.7,20.2-7.3,28.1c-1.1,1.6-2.3,3.1-3.7,4.4c-1.4,1.6-3.1,1.4-5.1,1c-2-0.5-4-1.2-5.8-2.2
			c-1.3-0.7-2.8-1.6-2.8-3.1c0.1-1,0.8-1.9,1.7-2.2c0.9-0.4,1.9-0.6,2.8-0.7c5.3-1.1,9.7-5,12.7-9.5c3.2-5.2,5.7-10.9,7.5-16.8"/>
	</g>
	<path class="st6" d="M514.4,103.1c1.4-1.2,2.6-2.6,3.6-4.1c1.5-2.2,2.7-4.7,3.6-7.2c1.1-3.1,2-6.3,2.8-9.6
		c1.4-5.9,2.3-11.9,2.7-17.9c0.2-2.3,0.2-4.2,0.3-5.5c0.1-0.6,0.1-1.1,0.1-1.5c0-0.2,0-0.4,0.1-0.5c0,0.2,0,0.3,0,0.5
		c0,0.4,0,0.9,0,1.5c0,1.3,0,3.2-0.2,5.5c-0.3,6.1-1.2,12.1-2.6,18c-0.7,3.3-1.6,6.5-2.8,9.6c-0.9,2.6-2.2,5-3.8,7.3
		c-1.1,1.5-2.3,2.9-3.7,4.1c-0.4,0.3-0.8,0.6-1.2,0.9c-0.3,0.2-0.5,0.3-0.5,0.3C512.8,104.4,513.4,104,514.4,103.1z"/>
</g>
<g id="freepik--Stairs--inject-9">
	<polygon class="st1" points="507.9,317.7 507.9,339.6 641.9,317.7 	"/>
	<polygon class="st1" points="351.8,367.3 351.8,389.2 485.8,367.3 	"/>
	<polygon class="st1" points="196.8,414.7 196.8,436.6 330.8,414.7 	"/>
	<polygon class="st1" points="42,452.4 42,474.3 176,452.4 	"/>
	<rect x="507.9" y="301.3" class="st4" width="134" height="16.4"/>
	<g class="st10">
		<rect x="507.9" y="301.3" width="41.8" height="16.4"/>
	</g>
	<rect x="351.8" y="350.8" class="st4" width="134" height="16.4"/>
	<g class="st10">
		<rect x="351.8" y="350.8" width="41.8" height="16.4"/>
	</g>
	<rect x="196.8" y="398.2" class="st4" width="134" height="16.4"/>
	<g class="st10">
		<rect x="196.8" y="398.2" width="41.8" height="16.4"/>
	</g>
	<rect x="41.8" y="436" class="st4" width="134" height="16.4"/>
	<g class="st10">
		<rect x="41.8" y="436" width="41.8" height="16.4"/>
	</g>
	<path class="st0" d="M124.4,376.1c0-2-1.6-3.6-3.6-3.6c-2,0-3.6,1.6-3.6,3.6c0,2,1.6,3.6,3.6,3.6
		C122.7,379.8,124.4,378.2,124.4,376.1C124.4,376.2,124.4,376.2,124.4,376.1z"/>
</g>
</svg>
